<svg width="0" height="0" class="hidden">
  <!-- landing page icons -->
  <symbol fill="none" xmlns="http://www.w3.org/2000/svg" viewBox="0 0 39 39" id="circled_arrow">
    <circle cx="19.5" cy="19.5" r="19.5" fill="white"></circle>
    <circle cx="19.5" cy="19.5" r="19.5" fill="#FDF0E1"></circle>
    <path d="M23.0263 13.3037C22.6214 12.8988 21.972 12.8988 21.5671 13.3037C21.1621 13.7086 21.1621 14.358 21.5671 14.7629L25.1961 18.392H11.0314C10.4584 18.392 10 18.8504 10 19.4234C10 19.9964 10.4584 20.4548 11.0314 20.4548H25.1961L21.5747 24.0762C21.1698 24.4811 21.1698 25.1305 21.5747 25.5354C21.7733 25.7341 22.0407 25.841 22.3005 25.841C22.5603 25.841 22.8277 25.7417 23.0263 25.5354L28.4126 20.1492C28.8175 19.7443 28.8175 19.0949 28.4126 18.6899L23.0263 13.3037Z" fill="#FF8F15"></path>
  </symbol>
  <symbol xmlns="http://www.w3.org/2000/svg" viewBox="0 0 16 9" id="eye">
      <path fill-rule="evenodd" clip-rule="evenodd" d="M7.52631 8.905C11.5655 8.905 14.9207 4.96112 14.9207 4.96112C15.1831 4.68021 15.1904 4.21628 14.9289 3.93308C14.9289 3.93308 11.7396 0 7.56115 0C3.38267 0 0.193348 3.93308 0.193348 3.93308C-0.0645367 4.21997 -0.065876 4.68561 0.197905 4.96542C0.197905 4.96542 3.48724 8.90498 7.52639 8.90498L7.52631 8.905ZM7.56116 7.59546C9.29193 7.59546 10.695 6.18837 10.695 4.45258C10.695 2.71682 9.29185 1.30971 7.56116 1.30971C5.8303 1.30971 4.42735 2.71688 4.42735 4.45258C4.42735 6.18835 5.83038 7.59546 7.56116 7.59546ZM7.56116 5.84941C8.33038 5.84941 8.95399 5.22406 8.95399 4.45263C8.95399 3.6812 8.3304 3.05576 7.56116 3.05576C6.79193 3.05576 6.16826 3.6812 6.16826 4.45263C6.16826 5.22406 6.79193 5.84941 7.56116 5.84941Z"></path>
  </symbol>
  <symbol xmlns="http://www.w3.org/2000/svg" viewBox="0 0 8 6" id="long-arrow">
      <path d="M7.30664 3.00004C7.30664 3.16819 7.18169 3.30715 7.01958 3.32914L6.97451 3.33217L1.13615 3.33191L3.24537 5.43252C3.37536 5.56194 3.37581 5.77223 3.24639 5.90222C3.12873 6.02038 2.94424 6.0315 2.81401 5.93531L2.77669 5.90323L0.0975227 3.23558C0.0803885 3.21852 0.0655069 3.20005 0.0528765 3.18055C0.0493088 3.17469 0.0456772 3.16868 0.0422344 3.16256C0.0390677 3.15731 0.0362062 3.15185 0.0335069 3.14634C0.0297575 3.13832 0.026094 3.13004 0.022768 3.12158C0.0200653 3.11507 0.0178089 3.10873 0.0157509 3.10234C0.0133038 3.09441 0.0109262 3.08597 0.00888109 3.07739C0.00736094 3.07141 0.00615692 3.06565 0.00510645 3.05987C0.00362968 3.05126 0.00237226 3.04236 0.00147533 3.03335C0.000700951 3.02647 0.000234604 3.01966 -2.28882e-05 3.01285C-8.96454e-05 3.00872 -0.000173092 3.00439 -0.000173092 3.00004L-7.15256e-06 2.98718C0.000247478 2.98066 0.000692844 2.97415 0.00132942 2.96765L-0.000173092 3.00004C-0.000173092 2.97909 0.00176811 2.95858 0.00548077 2.9387C0.00634193 2.93395 0.00736761 2.92907 0.00850391 2.92422C0.0108628 2.91422 0.0135894 2.90459 0.0167289 2.89515C0.0182695 2.89047 0.0200648 2.88546 0.0219836 2.88048C0.0258646 2.87049 0.0300832 2.86096 0.0347242 2.85168C0.03688 2.84732 0.0392947 2.84275 0.0418234 2.83823C0.0459738 2.83085 0.0502496 2.82384 0.0547709 2.81701C0.057961 2.81217 0.0614934 2.80714 0.0651817 2.80218L0.0680561 2.79836C0.0770044 2.78667 0.0867114 2.77559 0.0971045 2.76519L0.0975032 2.76489L2.77667 0.0967923C2.90664 -0.0326429 3.11693 -0.0322075 3.24637 0.0977647C3.36404 0.215921 3.37437 0.400457 3.27763 0.530279L3.24539 0.567463L1.13703 2.66765L6.97451 2.66792C7.15794 2.66792 7.30664 2.81662 7.30664 3.00004Z"></path>
    </symbol>

  <symbol xmlns="http://www.w3.org/2000/svg" viewBox="0 0 18 17" id="check">
      <path fill-rule="evenodd" clip-rule="evenodd" d="M8.99979 0.394775C4.52348 0.394775 0.894531 4.02372 0.894531 8.50004C0.894531 12.9764 4.52348 16.6053 8.99979 16.6053C13.4761 16.6053 17.1051 12.9764 17.1051 8.50004C17.1051 4.02372 13.4761 0.394775 8.99979 0.394775ZM12.5131 7.12951C12.5778 7.05556 12.627 6.96943 12.6579 6.87616C12.6888 6.7829 12.7008 6.6844 12.693 6.58645C12.6853 6.4885 12.6581 6.39309 12.613 6.30582C12.5678 6.21855 12.5057 6.14119 12.4302 6.07829C12.3547 6.01539 12.2674 5.96822 12.1734 5.93956C12.0795 5.91089 11.9807 5.90132 11.883 5.91139C11.7852 5.92145 11.6905 5.95097 11.6043 5.99819C11.5182 6.04541 11.4423 6.10939 11.3813 6.18635L8.21285 9.98772L6.57337 8.34751C6.4344 8.21329 6.24828 8.13902 6.05508 8.1407C5.86188 8.14238 5.67707 8.21987 5.54045 8.35649C5.40384 8.4931 5.32634 8.67791 5.32467 8.87111C5.32299 9.06431 5.39726 9.25044 5.53148 9.38941L7.742 11.5999C7.8144 11.6723 7.90108 11.7288 7.99652 11.7658C8.09196 11.8028 8.19406 11.8195 8.29631 11.8148C8.39856 11.8102 8.49872 11.7843 8.59041 11.7388C8.6821 11.6933 8.7633 11.6292 8.82885 11.5506L12.5131 7.12951Z"></path>
    </symbol>
   <symbol  xmlns="http://www.w3.org/2000/svg" viewBox="0 0 26 30" id="lock">
      <path d="M12.7271 0C17.3302 0 21.0341 3.62218 21.0341 8.09401V10.394C23.6176 11.2004 25.5 13.5392 25.5 16.3326V23.7379C25.5 27.1962 22.633 30 19.0983 30H6.4032C2.86703 30 0 27.1962 0 23.7379V16.3326C0 13.5392 1.88392 11.2004 4.46593 10.394V8.09401C4.48117 3.62218 8.185 0 12.7271 0ZM12.7424 17.0764C12.0108 17.0764 11.4163 17.6578 11.4163 18.3732V21.6824C11.4163 22.4128 12.0108 22.9941 12.7424 22.9941C13.4892 22.9941 14.0837 22.4128 14.0837 21.6824V18.3732C14.0837 17.6578 13.4892 17.0764 12.7424 17.0764ZM12.7576 2.60857C9.66348 2.60857 7.14854 5.05317 7.13329 8.0642V10.0706H18.3667V8.09401C18.3667 5.06807 15.8518 2.60857 12.7576 2.60857Z" ></path>
  </symbol>
  <symbol  xmlns="http://www.w3.org/2000/svg" viewBox="0 0 19 17" id="arrow_down">
      <path d="M14.1091 0C15.3756 0 16.5939 0.500556 17.4902 1.39872C18.3874 2.295 18.8889 3.50389 18.8889 4.76944V12.2306C18.8889 14.8656 16.745 17 14.1091 17H4.77889C2.14294 17 0 14.8656 0 12.2306V4.76944C0 2.13444 2.1335 0 4.77889 0H14.1091ZM15.1772 4.91111C14.9789 4.90072 14.79 4.96778 14.6474 5.1L10.3889 8.5C9.84111 8.95428 9.05628 8.95428 8.5 8.5L4.25 5.1C3.95628 4.88278 3.55017 4.91111 3.30556 5.16611C3.05056 5.42111 3.02222 5.82722 3.2385 6.11056L3.36222 6.23333L7.65944 9.58611C8.18833 10.0017 8.82961 10.2283 9.50111 10.2283C10.1707 10.2283 10.8233 10.0017 11.3513 9.58611L15.6117 6.17667L15.6872 6.10111C15.9129 5.82722 15.9129 5.43056 15.6768 5.15667C15.5456 5.01594 15.3652 4.93 15.1772 4.91111Z" fill="#008B78"></path>
  </symbol>

   <symbol  xmlns="http://www.w3.org/2000/svg" viewBox="0 0 30 31" id="go_up">
      <path d="M20.9561 18.9759C21.3449 19.3805 21.978 19.3834 22.3703 18.9825C22.7625 18.5815 22.7654 17.9286 22.3766 17.5241L20.0049 15.0563C19.1116 14.1269 18.3816 13.3672 17.7311 12.8285C17.0546 12.2682 16.368 11.8627 15.5439 11.7544C15.1825 11.7069 14.8168 11.7069 14.4555 11.7544C13.6313 11.8627 12.9447 12.2682 12.2683 12.8285C11.6178 13.3672 10.8878 14.1268 9.99451 15.0563L7.62275 17.5241C7.23397 17.9286 7.2368 18.5815 7.62906 18.9825C8.02132 19.3834 8.65448 19.3805 9.04326 18.9759L11.373 16.5519C12.3185 15.5681 12.9692 14.8932 13.5206 14.4366C14.0562 13.993 14.4002 13.8408 14.7083 13.8003C14.9018 13.7749 15.0975 13.7749 15.291 13.8003C15.5991 13.8408 15.9431 13.993 16.4787 14.4366C17.0301 14.8932 17.6808 15.5681 18.6263 16.5519L20.9561 18.9759Z" ></path>
      <path fill-rule="evenodd" clip-rule="evenodd" d="M29.333 15.5C29.333 7.33654 22.9158 0.71875 14.9997 0.71875C7.08359 0.71875 0.66634 7.33654 0.66634 15.5C0.66634 23.6635 7.08359 30.2813 14.9997 30.2813C22.9158 30.2813 29.333 23.6635 29.333 15.5ZM14.9997 2.78125C21.8112 2.78125 27.333 8.47563 27.333 15.5C27.333 22.5244 21.8112 28.2188 14.9997 28.2188C8.18816 28.2188 2.66634 22.5244 2.66634 15.5C2.66634 8.47563 8.18816 2.78125 14.9997 2.78125Z" ></path>
    </symbol>

      <symbol  xmlns="http://www.w3.org/2000/svg" viewBox="0 0 11 23" id="arrow_right">
      <path d="M0.260057 22.3159C-0.0551635 21.927 -0.0838199 21.3185 0.174088 20.8897L0.260057 20.7668L7.91879 11.318L0.260057 1.86917C-0.0551635 1.48029 -0.0838199 0.871759 0.174088 0.442945L0.260057 0.320093C0.575277 -0.0687847 1.06855 -0.104137 1.41614 0.214035L1.51572 0.320093L9.80269 10.5435C10.1179 10.9323 10.1466 11.5409 9.88866 11.9697L9.80269 12.0925L1.51572 22.3159C1.16898 22.7437 0.606799 22.7437 0.260057 22.3159Z"></path>
    </symbol>
  <symbol  xmlns="http://www.w3.org/2000/svg" viewBox="0 0 11 23" id="arrow_left">
      <path d="M10.7399 0.320824C11.0552 0.709701 11.0838 1.31823 10.8259 1.74704L10.7399 1.8699L3.08119 11.3187L10.7399 20.7676C11.0552 21.1564 11.0838 21.765 10.8259 22.1938L10.7399 22.3166C10.4247 22.7055 9.93145 22.7409 9.58386 22.4227L9.48427 22.3166L1.19728 12.0933C0.882062 11.7044 0.853405 11.0959 1.11131 10.667L1.19728 10.5442L9.48427 0.320824C9.83102 -0.106941 10.3932 -0.106941 10.7399 0.320824Z"></path>
  </symbol>
  <symbol xmlns="http://www.w3.org/2000/svg" viewBox="0 0 40 30" id="dots">
    <circle cx="20" cy="26" r="4" transform="rotate(90 20 26)" fill="#FF8F15"></circle>
    <circle cx="20" cy="4" r="4" transform="rotate(90 20 4)" fill="#FF8F15"></circle>
    <circle cx="28" cy="15" r="4" transform="rotate(90 28 15)" fill="#FF8F15"></circle>
    <circle cx="36" cy="4" r="4" transform="rotate(90 36 4)" fill="#FF8F15"></circle>
    <circle cx="12" cy="15" r="4" transform="rotate(90 12 15)" fill="#FF8F15"></circle>
    <circle cx="4" cy="4" r="4" transform="rotate(90 4 4)" fill="#FF8F15"></circle>
  </symbol>
  <symbol xmlns="http://www.w3.org/2000/svg" viewBox="0 0 34 34" id="plus">
    <path d="M15.35 15.35V8.75H18.65V15.35H25.25V18.65H18.65V25.25H15.35V18.65H8.75V15.35H15.35ZM17 33.5C7.88705 33.5 0.5 26.1129 0.5 17C0.5 7.88705 7.88705 0.5 17 0.5C26.1129 0.5 33.5 7.88705 33.5 17C33.5 26.1129 26.1129 33.5 17 33.5ZM17 30.2C20.5009 30.2 23.8583 28.8093 26.3338 26.3338C28.8093 23.8583 30.2 20.5009 30.2 17C30.2 13.4991 28.8093 10.1417 26.3338 7.66619C23.8583 5.19071 20.5009 3.8 17 3.8C13.4991 3.8 10.1417 5.19071 7.66619 7.66619C5.19071 10.1417 3.8 13.4991 3.8 17C3.8 20.5009 5.19071 23.8583 7.66619 26.3338C10.1417 28.8093 13.4991 30.2 17 30.2Z"></path>
  </symbol>
  <symbol  xmlns="http://www.w3.org/2000/svg" viewBox="0 0 34 34" id="minus">
    <path d="M17 33.5C7.88705 33.5 0.5 26.1129 0.5 17C0.5 7.88705 7.88705 0.5 17 0.5C26.1129 0.5 33.5 7.88705 33.5 17C33.5 26.1129 26.1129 33.5 17 33.5ZM17 30.2C20.5009 30.2 23.8583 28.8093 26.3338 26.3338C28.8093 23.8583 30.2 20.5009 30.2 17C30.2 13.4991 28.8093 10.1417 26.3338 7.66619C23.8583 5.19071 20.5009 3.8 17 3.8C13.4991 3.8 10.1417 5.19071 7.66619 7.66619C5.19071 10.1417 3.8 13.4991 3.8 17C3.8 20.5009 5.19071 23.8583 7.66619 26.3338C10.1417 28.8093 13.4991 30.2 17 30.2Z" ></path>
    <path d="M25.25 15.35H18.65H15.35H8.75V18.65H15.35H18.65H25.25V15.35Z" ></path>
  </symbol>

  <symbol  xmlns="http://www.w3.org/2000/svg" viewBox="0 0 20 16" id="message">
    <path d="M10.5376 8.73204C10.3775 8.84937 10.1888 8.90797 10 8.90797C9.81118 8.90797 9.62246 8.84937 9.4624 8.73204L1.81818 3.1263L6.06059e-05 1.79303L0 14.6656C6.06059e-05 15.1677 0.407029 15.5747 0.909088 15.5747L19.0909 15.5746C19.593 15.5746 20 15.1676 20 14.6656V1.79297L18.1818 3.1263L10.5376 8.73204Z" ></path>
    <path d="M10.0003 6.87229L18.7934 0.423889L1.20703 0.423828L10.0003 6.87229Z"></path>
  </symbol>
    <symbol  xmlns="http://www.w3.org/2000/svg" viewBox="0 0 24 27" id="twitter">
    <path d="M12 0C5.37299 0 0 6.04463 0 13.5C0 20.9554 5.37299 27 12 27C18.627 27 24 20.9554 24 13.5C24 6.04463 18.627 0 12 0ZM18.464 10.7269C18.47 10.8765 18.473 11.025 18.473 11.1735C18.473 15.75 15.378 21.024 9.71699 21.024C7.97799 21.024 6.36099 20.4514 5 19.4681C5.24099 19.5007 5.48599 19.5154 5.73499 19.5154C7.17799 19.5154 8.50399 18.963 9.55599 18.0326C8.20899 18.0045 7.07199 17.0033 6.68099 15.6285C6.86899 15.669 7.06199 15.6904 7.25999 15.6904C7.54099 15.6904 7.81399 15.6476 8.07099 15.5689C6.66299 15.2516 5.60199 13.8521 5.60199 12.1747C5.60199 12.1601 5.60199 12.1455 5.60199 12.1309C6.01699 12.3907 6.49099 12.546 6.99599 12.564C6.17099 11.9441 5.62699 10.8833 5.62699 9.68288C5.62699 9.04725 5.77799 8.45213 6.04299 7.9425C7.56099 10.0373 9.82899 11.4165 12.386 11.5605C12.334 11.3074 12.307 11.043 12.307 10.7719C12.307 8.8605 13.685 7.30912 15.384 7.30912C16.269 7.30912 17.069 7.72988 17.63 8.40263C18.331 8.24625 18.99 7.95937 19.585 7.56225C19.355 8.37113 18.867 9.04838 18.231 9.47813C18.853 9.39488 19.446 9.20925 19.999 8.93363C19.588 9.62887 19.067 10.2375 18.464 10.7269Z"></path>
  </symbol>
  <symbol  xmlns="http://www.w3.org/2000/svg" viewBox="0 0 25 27" id="linkedin">
    <path d="M12.5 0C5.87299 0 0.5 6.04463 0.5 13.5C0.5 20.9554 5.87299 27 12.5 27C19.127 27 24.5 20.9554 24.5 13.5C24.5 6.04463 19.127 0 12.5 0ZM7.99599 6.07837C8.83799 6.07837 9.39899 6.7095 9.39899 7.551C9.39899 8.3925 8.83799 9.02362 7.90299 9.02362C7.06099 9.02475 6.49999 8.3925 6.49999 7.551C6.49999 6.7095 7.06099 6.07837 7.99599 6.07837ZM9.49999 19.125H6.49999V10.125H9.49999V19.125ZM19.5 19.125H16.676V14.2065C16.676 12.8464 15.923 12.5325 15.641 12.5325C15.359 12.5325 14.417 12.7418 14.417 14.2065C14.417 14.4158 14.417 19.125 14.417 19.125H11.5V10.125H14.418V11.3805C14.794 10.6481 15.547 10.125 16.959 10.125C18.371 10.125 19.5 11.3805 19.5 14.2065V19.125Z" ></path>
  </symbol>
  <symbol  xmlns="http://www.w3.org/2000/svg" viewBox="0 0 25 27" id="facebook">
    <path d="M12.5 0C5.87299 0 0.5 6.04463 0.5 13.5C0.5 20.9554 5.87299 27 12.5 27C19.127 27 24.5 20.9554 24.5 13.5C24.5 6.04463 19.127 0 12.5 0ZM16.681 9H14.952C13.876 9 13.5 9.639 13.5 10.9327V12.375H16.654L16.226 15.75H13.5V24.6937C13.171 24.7297 12.838 24.75 12.5 24.75C11.815 24.75 11.146 24.6712 10.5 24.5239V15.75H7.49999V12.375H10.5V10.5626C10.5 7.13137 11.986 5.625 14.521 5.625C15.735 5.625 16.377 5.72625 16.681 5.77237V9Z" ></path>
  </symbol>
  <symbol fill="none" xmlns="http://www.w3.org/2000/svg" viewBox="0 0 23 17" id="long_arrow">
    <path fill-rule="evenodd" clip-rule="evenodd" d="M23 8.50638C23 8.31447 22.9209 8.13119 22.7894 7.99319L15.6745 0.80641C15.3935 0.522504 14.9385 0.523223 14.6582 0.80641C14.3772 1.0896 14.3772 1.5496 14.6582 1.83279L20.5469 7.78044H0.71875C0.322 7.78044 0 8.10532 0 8.50638C0 8.90744 0.322 9.23232 0.71875 9.23232H20.5462L14.6582 15.18C14.3772 15.4632 14.3779 15.9232 14.6582 16.2063C14.9392 16.4895 15.3942 16.4895 15.6745 16.2063L22.7894 9.01957C22.9238 8.88372 22.9978 8.69685 23 8.50638Z" fill="white"></path>
  </symbol>
  <!-- serach icon in products page -->
  <symbol  xmlns="http://www.w3.org/2000/svg" viewBox="0 0 30 31" id="search">
    <path d="M10.5 14.8431C10.4748 14.8164 10.4496 14.794 10.423 14.7703L10.42 14.7677L10.5 14.8431ZM10.5 14.8431C12.16 16.5446 13.0754 18.7985 13.0754 21.1908V27.2061L10.5 14.8431ZM9.00415 16.4709L9.00358 16.4715C10.2073 17.7501 10.8677 19.4193 10.8677 21.1908V28.2246C10.8677 28.8233 11.1738 29.3614 11.685 29.6664C11.9497 29.8234 12.2397 29.9015 12.5323 29.9015C12.8031 29.9015 13.0744 29.8335 13.3245 29.6983C13.3246 29.6983 13.3247 29.6982 13.3247 29.6982L17.572 27.3846L9.00415 16.4709ZM9.00415 16.4709L8.99446 16.4629M9.00415 16.4709L8.99446 16.4629M8.99446 16.4629C8.96149 16.4357 8.92987 16.4067 8.90324 16.3773L8.90208 16.3761M8.99446 16.4629L8.90208 16.3761M8.90208 16.3761L1.44669 8.44841L1.44667 8.44839M8.90208 16.3761L1.44667 8.44839M1.44667 8.44839C0.578091 7.52552 0.1 6.3147 0.1 5.04154M1.44667 8.44839L0.1 5.04154M0.1 5.04154V3.60154M0.1 5.04154V3.60154M0.1 3.60154C0.1 1.66958 1.65472 0.1 3.56154 0.1M0.1 3.60154L3.56154 0.1M3.56154 0.1H26.44M3.56154 0.1H26.44M26.44 0.1C28.3452 0.1 29.9 1.66955 29.9 3.60154M26.44 0.1L29.9 3.60154M29.9 3.60154V5.04154M29.9 3.60154V5.04154M29.9 5.04154C29.9 6.31304 29.422 7.52238 28.5564 8.44687M29.9 5.04154L28.5564 8.44687M28.5564 8.44687L28.5562 8.44703M28.5564 8.44687L28.5562 8.44703M28.5562 8.44703L21.1005 16.375C21.1003 16.3752 21.1002 16.3754 21.1 16.3756C19.8467 17.6681 19.1615 19.3683 19.1615 21.1723V24.6908C19.1615 25.8175 18.5521 26.8483 17.5722 27.3845L28.5562 8.44703ZM10.3471 14.8362L10.3469 14.8365L10.3536 14.8424L10.3553 14.844C10.3828 14.8685 10.4051 14.8883 10.4273 14.9117L10.4273 14.9117L10.4284 14.9129C12.0701 16.5957 12.9754 18.8244 12.9754 21.1908V27.32V27.4883L13.1232 27.4078L16.5632 25.534L16.5633 25.5339C16.8675 25.368 17.0538 25.0443 17.0538 24.6908V21.1723C17.0538 18.815 17.9501 16.5939 19.5763 14.9205L19.5775 14.9193L27.019 7.00388L26.9462 6.93538L27.019 7.00387C27.5182 6.47281 27.7923 5.77593 27.7923 5.04154V3.60154C27.7923 2.83547 27.1874 2.20769 26.44 2.20769H3.56154C2.81266 2.20769 2.20769 2.83539 2.20769 3.60154V5.04154C2.20769 5.77586 2.48177 6.47277 2.98099 7.00235C2.98102 7.00238 2.98105 7.00241 2.98108 7.00244L10.3471 14.8362Z"  stroke="white" stroke-width="0.2"></path>
  </symbol>
  <!-- about us -->
  <symbol xmlns="http://www.w3.org/2000/svg" viewBox="0 0 31 32" id="round_circle">
    <path d="M14.9414 16.5554L21.6076 9.88867" stroke="#FF8F15" stroke-miterlimit="10" stroke-linecap="round" stroke-linejoin="round"></path>
    <path d="M30.5016 5.44448H26.0574V1L21.6133 5.44448V9.88897H26.0574L30.5016 5.44448Z" stroke="#FF8F15" stroke-miterlimit="10" stroke-linecap="round" stroke-linejoin="round"></path>
    <path d="M14.9397 23.2221C18.6213 23.2221 21.6059 20.2373 21.6059 16.5554C21.6059 12.8735 18.6213 9.88867 14.9397 9.88867C11.258 9.88867 8.27344 12.8735 8.27344 16.5554C8.27344 20.2373 11.258 23.2221 14.9397 23.2221Z" stroke="#FF8F15" stroke-miterlimit="10" stroke-linecap="round" stroke-linejoin="round"></path>
    <path d="M27.1649 8.77806C28.6092 11.0003 29.3869 13.667 29.3869 16.5559C29.3869 24.556 22.9429 31.0005 14.9435 31.0005C6.94401 31.0005 0.5 24.556 0.5 16.5559C0.5 8.55583 6.94401 2.11133 14.9435 2.11133C17.8322 2.11133 20.4986 2.88911 22.7207 4.33357" stroke="#FF8F15" stroke-miterlimit="10" stroke-linecap="round" stroke-linejoin="round"></path>
  </symbol>

  <symbol xmlns="http://www.w3.org/2000/svg" viewBox="0 0 31 22" id="circle_eye">
    <path d="M22.2551 5.88406L22.7096 5.42768L23.9395 4.19266L23.94 4.19208C23.953 4.17914 23.9631 4.16388 23.97 4.14727L23.9701 4.14712C23.977 4.13048 23.9805 4.11258 23.9805 4.09452C23.9805 4.07645 23.977 4.05856 23.9701 4.04192L23.97 4.04176C23.9631 4.02516 23.953 4.0099 23.94 3.99696C23.9274 3.98431 23.9122 3.97417 23.8953 3.96718L24.0868 3.5053M22.2551 5.88406L29.9719 12.5079C29.9694 12.511 29.9662 12.515 29.9625 12.5196C29.7766 12.7509 28.142 14.7853 25.5775 16.7782C22.9533 18.8175 19.4152 20.7669 15.5 20.7669C11.5847 20.7669 8.04403 18.8175 5.41861 16.7782C2.80053 14.7445 1.15251 12.6681 1.03378 12.5151L1.03383 12.515L1.02873 12.5087C1.01011 12.4855 1 12.4567 1 12.427C1 12.3978 1.00981 12.3695 1.02791 12.3465C3.03012 9.89488 5.44784 7.81453 8.17066 6.20035L8.72334 5.8727L8.26996 5.41743L7.04007 4.18241L7.03934 4.18168C7.0135 4.15584 6.99899 4.12083 6.99899 4.08427C6.99899 4.04771 7.0135 4.0127 7.03934 3.98686C7.06517 3.96103 7.10019 3.94652 7.13674 3.94652C7.17327 3.94652 7.20833 3.96104 7.23415 3.98686L7.23414 3.98687L7.23713 3.98982L8.7745 5.50157L9.02846 5.75129L9.34746 5.59288C11.075 4.73499 12.9562 4.22973 14.8811 4.10667L15.3492 4.07674V3.60769V0.640569C15.3492 0.603277 15.364 0.5675 15.3904 0.541164C15.4167 0.514813 15.4524 0.5 15.4898 0.5C15.527 0.5 15.5628 0.514797 15.5891 0.541164L15.5892 0.541239C15.6155 0.56755 15.6303 0.603288 15.6303 0.640569V3.61794V4.08699L16.0984 4.11692C18.0234 4.23997 19.9045 4.74523 21.6321 5.60312L21.9511 5.76154L22.205 5.51181L23.7424 4.00007L23.7424 4.00008L23.7455 3.99696C23.7581 3.98437 23.7732 3.97421 23.7902 3.96718L23.5987 3.5053M22.2551 5.88406L22.8099 6.2112M22.2551 5.88406L22.8099 6.2112M24.0868 3.5053L23.8956 3.96729C23.8788 3.96032 23.8608 3.95677 23.8428 3.95677C23.8247 3.95677 23.8067 3.96033 23.7899 3.96729L23.5987 3.5053M24.0868 3.5053C24.0094 3.47327 23.9265 3.45677 23.8428 3.45677C23.759 3.45677 23.6761 3.47327 23.5987 3.5053M24.0868 3.5053C24.1642 3.53738 24.2345 3.58432 24.2938 3.64356C24.3529 3.7028 24.3999 3.77311 24.432 3.85044C24.464 3.92782 24.4805 4.01078 24.4805 4.09452C24.4805 4.17825 24.464 4.26122 24.432 4.3386L23.5987 3.5053M22.8099 6.2112C25.5388 7.82032 27.9632 9.89716 29.9723 12.3467L22.8099 6.2112ZM1.60803 12.1004L1.32608 12.427L1.60803 12.7537C2.31687 13.575 4.09174 15.4974 6.52522 17.2181C8.95261 18.9344 12.0856 20.4858 15.5 20.4858C18.9144 20.4858 22.0474 18.9344 24.4748 17.2181C26.9083 15.4974 28.6831 13.575 29.392 12.7537L29.6739 12.427L29.392 12.1004C28.6831 11.279 26.9083 9.35668 24.4748 7.63602C22.0474 5.91965 18.9144 4.36833 15.5 4.36833C12.0856 4.36833 8.95261 5.91965 6.52522 7.63602C4.09174 9.35668 2.31687 11.279 1.60803 12.1004Z"  stroke="#FF8F15"></path>
    <path d="M13.1423 8.91382L13.1423 8.91383C12.445 9.37974 11.9015 10.042 11.5806 10.8168C11.2597 11.5916 11.1757 12.4441 11.3393 13.2666L13.1423 8.91382ZM13.1423 8.91382C13.8395 8.44795 14.6592 8.19927 15.4978 8.19922C16.622 8.20048 17.6999 8.64765 18.4948 9.44264L18.4948 9.44266C19.2899 10.2377 19.7371 11.3156 19.7383 12.44C19.7382 13.2784 19.4895 14.098 19.0237 14.7952L19.0237 14.7952C18.5577 15.4925 17.8955 16.036 17.1207 16.3569C16.3459 16.6778 15.4933 16.7618 14.6708 16.5982C13.8483 16.4346 13.0928 16.0307 12.4998 15.4377L12.4998 15.4377M13.1423 8.91382L12.4998 15.4377M12.4998 15.4377C11.9068 14.8447 11.5029 14.0892 11.3393 13.2667L12.4998 15.4377ZM15.4988 16.3985L15.498 16.3985C14.715 16.3985 13.9495 16.1663 13.2985 15.7313C12.6475 15.2962 12.14 14.6779 11.8403 13.9545C11.5407 13.2311 11.4623 12.435 11.615 11.6671L11.615 11.667C11.7678 10.8991 12.1448 10.1936 12.6985 9.63993C13.2522 9.08625 13.9577 8.70917 14.7256 8.55643L15.4988 16.3985ZM15.4988 16.3985C16.5481 16.397 17.5541 15.9794 18.296 15.2375L18.2961 15.2375C19.0381 14.4955 19.4556 13.4895 19.4571 12.4402V12.4394M15.4988 16.3985L19.4571 12.4394M19.4571 12.4394C19.4571 11.6564 19.2249 10.8909 18.7899 10.2399C18.3549 9.58884 17.7365 9.08138 17.0131 8.78172C16.2897 8.48207 15.4937 8.40364 14.7257 8.55643L19.4571 12.4394Z"  stroke="#FF8F15"></path>
  </symbol>

    <symbol  xmlns="http://www.w3.org/2000/svg" viewBox="0 0 70 70" id="github">
    <path d="M65.305 17.8687C62.1752 12.3717 57.9298 8.01971 52.5678 4.81176C47.2049 1.60365 41.3503 0 34.9997 0C28.6499 0 22.7933 1.60414 17.4316 4.81176C12.0691 8.01955 7.82385 12.3717 4.69406 17.8687C1.56474 23.3655 0 29.3681 0 35.8763C0 43.6941 2.22508 50.7241 6.67636 56.968C11.1272 63.2124 16.8769 67.5333 23.9252 69.9312C24.7456 70.0873 25.353 69.9775 25.7479 69.6046C26.1429 69.2312 26.3402 68.7636 26.3402 68.2037C26.3402 68.1103 26.3324 67.2697 26.3172 65.6812C26.3016 64.0926 26.2943 62.7067 26.2943 61.5242L25.246 61.7101C24.5777 61.8356 23.7346 61.8888 22.7167 61.8737C21.6993 61.8591 20.6431 61.7498 19.5496 61.5466C18.4556 61.3452 17.438 60.8781 16.4961 60.1462C15.5547 59.4143 14.8863 58.4563 14.4913 57.2737L14.0356 56.1987C13.7318 55.483 13.2536 54.688 12.6003 53.8165C11.947 52.9443 11.2863 52.3529 10.618 52.0416L10.2989 51.8074C10.0863 51.6518 9.889 51.4641 9.70655 51.2464C9.52427 51.0286 9.3878 50.8106 9.29665 50.5924C9.20535 50.3739 9.28101 50.1948 9.52443 50.0542C9.76785 49.9137 10.2078 49.8454 10.8461 49.8454L11.7572 49.985C12.3648 50.1099 13.1165 50.4827 14.0131 51.106C14.9092 51.7287 15.6458 52.5383 16.2231 53.5344C16.9223 54.8117 17.7646 55.7849 18.7524 56.4546C19.7395 57.1243 20.7347 57.4586 21.7372 57.4586C22.7396 57.4586 23.6053 57.3807 24.3348 57.2257C25.0634 57.07 25.7471 56.8358 26.3854 56.5246C26.6588 54.4371 27.4033 52.8335 28.6181 51.7125C26.8866 51.526 25.3298 51.2451 23.9471 50.8715C22.5651 50.4975 21.137 49.8904 19.6637 49.0488C18.1896 48.2083 16.9668 47.1645 15.9949 45.9194C15.0228 44.6736 14.225 43.038 13.6027 41.0142C12.98 38.9895 12.6686 36.654 12.6686 34.0069C12.6686 30.2379 13.8689 27.0306 16.2691 24.3833C15.1448 21.5497 15.2509 18.3731 16.5879 14.854C17.469 14.5734 18.7756 14.784 20.5071 15.4844C22.239 16.1852 23.507 16.7855 24.3124 17.2833C25.1179 17.7808 25.7632 18.2025 26.2494 18.5445C29.0754 17.735 31.9918 17.3302 34.9994 17.3302C38.0069 17.3302 40.9239 17.735 43.7501 18.5445L45.4818 17.4238C46.666 16.6761 48.0644 15.9908 49.6737 15.3679C51.2839 14.7453 52.5152 14.5739 53.3663 14.8545C54.733 18.3738 54.8548 21.5502 53.7301 24.3838C56.1301 27.0311 57.3309 30.2392 57.3309 34.0074C57.3309 36.6545 57.0184 38.9974 56.3967 41.0376C55.7742 43.0781 54.9695 44.712 53.9825 45.9428C52.9943 47.1734 51.7636 48.2089 50.2903 49.0493C48.8167 49.8903 47.3881 50.4973 46.0062 50.8713C44.6236 51.2454 43.0668 51.5265 41.3353 51.7133C42.9145 53.1143 43.7043 55.3256 43.7043 58.3464V68.2024C43.7043 68.7623 43.8943 69.2298 44.2745 69.6033C44.6542 69.9762 45.2539 70.086 46.0743 69.9297C53.1236 67.5322 58.8733 63.2111 63.324 56.9667C67.7741 50.7228 70 43.6928 70 35.875C69.9984 29.3676 68.4329 23.3655 65.305 17.8687Z" ></path>
  </symbol>
    <!-- projects -->
    <symbol  xmlns="http://www.w3.org/2000/svg" viewBox="0 0 20 20" id="location">
    <path d="M9.99933 0C6.76773 0 4.13867 2.62906 4.13867 5.86066C4.13867 6.74196 4.32957 7.58895 4.70591 8.37867C4.71348 8.39556 4.72144 8.41215 4.72992 8.42874L9.15795 17.0023C9.32052 17.317 9.64511 17.5147 9.99926 17.5147C10.3535 17.5147 10.6781 17.3171 10.8406 17.0023L15.2674 8.43109C15.275 8.41632 15.2822 8.4014 15.289 8.38632C15.6678 7.59433 15.8598 6.74477 15.8598 5.86066C15.86 2.62906 13.2309 0 9.99933 0ZM9.99933 8.92825C8.30786 8.92825 6.93174 7.55214 6.93174 5.86066C6.93174 4.16926 8.30786 2.79314 9.99933 2.79314C11.6908 2.79314 13.0669 4.16926 13.0669 5.86066C13.0669 7.55214 11.6908 8.92825 9.99933 8.92825Z" ></path>
    <path d="M12.257 18.8633H7.74197C7.42813 18.8633 7.17383 19.1176 7.17383 19.4314C7.17383 19.7453 7.42813 19.9996 7.74197 19.9996H12.257C12.5708 19.9996 12.8251 19.7453 12.8251 19.4314C12.8251 19.1176 12.5707 18.8633 12.257 18.8633Z" ></path>
  </symbol>

    <symbol fill="none" xmlns="http://www.w3.org/2000/svg" viewBox="0 0 20 20" id="date">
    <path d="M5.20927 1.60254C4.89461 1.60254 4.64425 1.84087 4.64425 2.13296V5.60955C4.64425 5.90164 4.89461 6.13421 5.20927 6.13421H5.51484C5.8295 6.13421 6.08562 5.90164 6.08562 5.60955V2.13296C6.08562 1.84087 5.8295 1.60254 5.51484 1.60254H5.20927ZM14.4571 1.60254C14.1424 1.60254 13.8863 1.84087 13.8863 2.13296V5.60955C13.8863 5.90164 14.1424 6.13421 14.4571 6.13421H14.7569C15.0716 6.13421 15.3277 5.90164 15.3277 5.60955V2.13296C15.3277 1.84087 15.0716 1.60254 14.7569 1.60254H14.4571ZM2.86848 4.13935C1.85078 4.13935 1.0293 4.94351 1.0293 5.94395V16.5524C1.0293 17.5529 1.85078 18.3628 2.86848 18.3628H17.1035C18.1212 18.3628 18.9426 17.5529 18.9426 16.5524V5.94395C18.9426 4.94351 18.1212 4.13935 17.1035 4.13935H15.7082V5.90359C15.7082 6.35043 15.319 6.71075 14.8376 6.71075H14.3764C13.895 6.71075 13.5058 6.35043 13.5058 5.90359V4.13935H6.46614V5.90359C6.46614 6.35043 6.07693 6.71075 5.59556 6.71075H5.12855C4.64718 6.71075 4.26373 6.35043 4.26373 5.90359V4.13935H2.86848ZM2.18239 9.17261H17.7838V15.8606C17.7838 16.534 17.2465 17.0713 16.573 17.0713H3.39891C2.72549 17.0713 2.18239 16.534 2.18239 15.8606V9.17261Z"></path>
  </symbol>

  <!--  soprtify  -->
  <!-- star -->
    <symbol xmlns="http://www.w3.org/2000/svg" viewBox="0 0 10 10" id="star">
    <path d="M7.9584 5.90923C7.82892 6.03471 7.76942 6.21619 7.79892 6.39417L8.24336 8.85384C8.28086 9.06232 8.19287 9.27329 8.01839 9.39377C7.84741 9.51876 7.61994 9.53376 7.43347 9.43377L5.21926 8.27892C5.14227 8.23792 5.05678 8.21593 4.96929 8.21343H4.83381C4.78681 8.22043 4.74082 8.23542 4.69882 8.25842L2.48411 9.41877C2.37463 9.47376 2.25064 9.49326 2.12916 9.47376C1.8332 9.41777 1.63572 9.13581 1.68422 8.83835L2.12916 6.37867C2.15866 6.19919 2.09916 6.01671 1.96968 5.88923L0.164416 4.13946C0.0134362 3.99298 -0.039057 3.77301 0.029934 3.57453C0.0969253 3.37656 0.267903 3.23208 0.474376 3.19958L2.95905 2.83913C3.14803 2.81963 3.31401 2.70465 3.39899 2.53467L4.49385 0.289962C4.51985 0.239969 4.55334 0.193975 4.59384 0.15498L4.63883 0.119984C4.66233 0.0939877 4.68933 0.0724905 4.71932 0.0549928L4.77381 0.0349954L4.8588 0H5.06928C5.25725 0.0194975 5.42273 0.131983 5.50922 0.299961L6.61857 2.53467C6.69856 2.69815 6.85404 2.81163 7.03352 2.83913L9.5182 3.19958C9.72817 3.22958 9.90364 3.37456 9.97314 3.57453C10.0386 3.77501 9.98213 3.99498 9.82816 4.13946L7.9584 5.90923Z"></path>
  </symbol>
</svg>
